HIERARCHY
ROOT Hips
{
	OFFSET	0.000000	0.000000	0.000000
	CHANNELS 6 Xposition Yposition Zposition Zrotation Xrotation Yrotation
	JOINT LeftUpLeg
	{
		OFFSET	12.830505	-7.049846	-1.643436
		CHANNELS 3 Zrotation Xrotation Yrotation
		JOINT LeftLeg
		{
			OFFSET	0.620834	-39.957500	-1.919341
			CHANNELS 3 Zrotation Xrotation Yrotation
			JOINT LeftFoot
			{
				OFFSET	-0.413890	-44.704761	-3.870325
				CHANNELS 3 Zrotation Xrotation Yrotation
				JOINT LeftFootHeel
				{
					OFFSET	0.164738	-8.918193	-6.555130
					CHANNELS 3 Zrotation Xrotation Yrotation
					End Site
					{
						OFFSET	-0.604053	0.000000	21.044330
					}
				}
			}
		}
	}
	JOINT RightUpLeg
	{
		OFFSET	-12.830505	-7.049846	-1.643436
		CHANNELS 3 Zrotation Xrotation Yrotation
		JOINT RightLeg
		{
			OFFSET	-0.620834	-39.957500	-1.919341
			CHANNELS 3 Zrotation Xrotation Yrotation
			JOINT RightFoot
			{
				OFFSET	0.413890	-44.704761	-3.870325
				CHANNELS 3 Zrotation Xrotation Yrotation
				JOINT RightFootHeel
				{
					OFFSET	-0.164738	-8.918193	-6.555130
					CHANNELS 3 Zrotation Xrotation Yrotation
					End Site
					{
						OFFSET	0.604053	0.000000	21.044330
					}
				}
			}
		}
	}
	JOINT Spine
	{
		OFFSET	0.000000	12.498170	1.820647
		CHANNELS 3 Zrotation Xrotation Yrotation
		JOINT Spine1
		{
			OFFSET	0.000000	7.620000	0.000000
			CHANNELS 3 Zrotation Xrotation Yrotation
			JOINT LeftShoulder
			{
				OFFSET	9.167800	29.136339	-5.551221
				CHANNELS 3 Zrotation Xrotation Yrotation
				JOINT LeftArm
				{
					OFFSET	12.133453	-3.880866	1.461963
					CHANNELS 3 Zrotation Xrotation Yrotation
					JOINT LeftForeArm
					{
						OFFSET	2.507115	-31.664908	-1.069404
						CHANNELS 3 Zrotation Xrotation Yrotation
						JOINT LeftHand
						{
							OFFSET	4.116172	-24.512624	5.009439
							CHANNELS 3 Zrotation Xrotation Yrotation
							End Site
							{
								OFFSET	-0.213136	-10.931856	2.182134
							}
						}
					}
				}
			}
			JOINT RightShoulder
			{
				OFFSET	-9.167800	29.136339	-5.551221
				CHANNELS 3 Zrotation Xrotation Yrotation
				JOINT RightArm
				{
					OFFSET	-12.133453	-3.880866	1.461963
					CHANNELS 3 Zrotation Xrotation Yrotation
					JOINT RightForeArm
					{
						OFFSET	-2.507115	-31.664908	-1.069404
						CHANNELS 3 Zrotation Xrotation Yrotation
						JOINT RightHand
						{
							OFFSET	-4.116172	-24.512624	5.009439
							CHANNELS 3 Zrotation Xrotation Yrotation
							End Site
							{
								OFFSET	0.213136	-10.931856	2.182134
							}
						}
					}
				}
			}
			JOINT Neck
			{
				OFFSET	0.000000	32.926272	-3.635654
				CHANNELS 3 Zrotation Xrotation Yrotation
				JOINT Head
				{
					OFFSET	0.000000	12.481178	4.646143
					CHANNELS 3 Zrotation Xrotation Yrotation
					End Site
					{
						OFFSET	0.000000	17.715204	-2.222063
					}
				}
			}
		}
	}
}
MOTION
Frames:     10
Frame Time: 0.016667
1.035671	103.346965	-0.892407	-0.017259	-0.151551	-0.345770	0.104538	0.663688	-0.020738	-0.933401	-0.414737	2.097000	1.121144	-0.069792	-1.670095	0.	0.	0.	-1.404437	-1.201833	-1.222380	0.962160	1.691018	-0.041888	1.349303	0.360839	1.458007	0.	0.	0.	-0.000000	-0.000001	-0.000001	0.424206	0.671459	-0.346449	-1.671330	-2.762463	0.923766	-0.122887	1.308842	1.172045	3.155360	8.018575	3.163704	6.489455	-2.007967	2.155557	-0.491787	-2.136302	0.111536	-0.601037	-0.825617	3.069752	0.174099	0.914629	0.604072	1.651367	3.135071	4.361170	-1.081776	-1.649274	0.675219	-0.221784	0.195499	0.815954	
0.877264	103.369086	-1.364465	0.143990	0.569849	-1.233316	0.224816	-1.180287	0.676628	-1.266549	1.362533	2.717318	1.176402	-0.816992	-2.053391	0.	0.	0.	-1.620435	-2.980814	-1.499306	1.146100	2.703856	1.418941	1.527568	0.303469	1.117786	0.	0.	0.	0.000001	-0.000001	-0.000004	0.562525	0.510651	0.075512	-1.647976	-2.872413	0.670537	-0.108988	1.542364	0.459188	1.855569	5.881932	2.814654	8.154079	-2.451846	1.915615	-0.527104	-2.311365	-0.272447	-1.509611	-0.425443	3.373933	1.061612	-2.238759	0.712089	-0.315078	3.759579	4.139966	-1.382169	-2.152989	0.855130	0.030010	0.037748	0.894948	
0.877264	103.369086	-1.364465	0.143990	0.569849	-1.233316	0.224816	-1.180287	0.676628	-1.266549	1.362533	2.717318	1.176402	-0.816992	-2.053391	0.	0.	0.	-1.620435	-2.980814	-1.499306	1.146100	2.703856	1.418941	1.527568	0.303469	1.117786	0.	0.	0.	0.000001	-0.000001	-0.000004	0.562525	0.510651	0.075512	-1.647976	-2.872413	0.670537	-0.108988	1.542364	0.459188	1.855569	5.881932	2.814654	8.154079	-2.451846	1.915615	-0.527104	-2.311365	-0.272447	-1.509611	-0.425443	3.373933	1.061612	-2.238759	0.712089	-0.315078	3.759579	4.139966	-1.382169	-2.152989	0.855130	0.030010	0.037748	0.894948	
0.639638	103.244433	-1.665271	0.419285	1.535495	-2.529799	-0.012782	-3.300055	0.951179	-1.413591	3.069211	3.301913	1.335839	-1.552937	-1.586282	0.	0.	0.	-1.903589	-5.736908	-2.285038	1.151014	5.234809	2.977626	2.122733	-0.943912	1.587764	0.	0.	0.	-0.000000	-0.000000	0.000000	0.795991	0.621899	0.335251	-1.698338	-3.440301	0.691407	-0.328938	1.480688	0.813132	0.492297	3.596259	1.552123	9.785205	-2.875473	2.207352	-0.729579	-2.857630	-0.371494	-2.551479	-0.263546	3.419332	2.036079	-5.503687	1.372400	-2.265233	4.384431	3.909336	-1.957721	-3.378623	1.420813	0.756545	-0.214139	1.002733	
0.387152	103.191268	-2.037989	0.745503	2.229049	-4.208152	-0.324741	-4.923141	1.261378	-1.487271	4.202391	4.234677	1.501565	-2.022741	-1.145197	0.	0.	0.	-2.338536	-9.005940	-2.756909	1.226219	9.146889	3.800559	3.020936	-3.232164	2.755535	0.	0.	0.	0.000000	-0.000001	-0.000001	0.952712	1.299825	0.556872	-1.617628	-4.125663	0.840505	-0.464690	1.716643	1.119934	-1.344927	0.378383	0.559331	11.193666	-3.461055	2.532274	-0.867915	-3.499958	-0.302216	-3.611217	-0.230935	3.326817	3.004846	-8.984237	2.457721	-3.954089	4.609625	3.642899	-2.549976	-5.023539	2.143390	1.780028	-0.704175	1.266477	
0.078119	103.145127	-2.240252	0.974591	2.376228	-5.294495	-0.480467	-5.642456	1.325713	-1.596888	4.809808	5.026888	1.595515	-2.239206	-0.908532	0.	0.	0.	-2.625782	-10.797976	-3.109403	1.253129	11.742867	3.952760	3.608675	-5.010462	3.335271	0.	0.	0.	-0.000000	-0.000000	-0.000001	0.938874	2.047360	0.311076	-1.448776	-4.452825	1.127621	-0.425762	2.021769	1.398695	-2.810228	-2.364654	-0.344675	12.063410	-3.789532	2.883255	-0.899594	-3.590947	0.010047	-4.325056	-0.315183	3.427675	3.691982	-11.658886	3.210581	-4.674840	4.464844	3.352451	-2.686805	-5.979262	2.910744	2.421637	-1.379840	1.543201	
0.078119	103.145127	-2.240252	0.974591	2.376228	-5.294495	-0.480467	-5.642456	1.325713	-1.596888	4.809808	5.026888	1.595515	-2.239206	-0.908532	0.	0.	0.	-2.625782	-10.797976	-3.109403	1.253129	11.742867	3.952760	3.608675	-5.010462	3.335271	0.	0.	0.	-0.000000	-0.000000	-0.000001	0.938874	2.047360	0.311076	-1.448776	-4.452825	1.127621	-0.425762	2.021769	1.398695	-2.810228	-2.364654	-0.344675	12.063410	-3.789532	2.883255	-0.899594	-3.590947	0.010047	-4.325056	-0.315183	3.427675	3.691982	-11.658886	3.210581	-4.674840	4.464844	3.352451	-2.686805	-5.979262	2.910744	2.421637	-1.379840	1.543201	
-0.886713	102.976416	-1.784552	1.295169	2.287649	-6.562311	-0.756858	-6.403674	1.430839	-1.778116	5.713501	5.706576	1.734757	-2.517191	-0.373961	0.	0.	0.	-3.100667	-12.482034	-5.001311	1.108649	15.318371	6.124224	3.987933	-7.927589	0.108212	0.	0.	0.	0.000000	0.000000	-0.000002	0.830236	3.137620	-0.437032	-1.217692	-4.752281	1.474067	0.191665	2.999625	1.528857	-5.624541	-7.314614	-2.140428	13.451340	-4.108092	3.289084	-1.069738	-3.316676	0.378828	-4.974451	0.031324	3.676189	4.570748	-16.521856	4.578660	-4.887571	3.939273	2.724929	-2.528748	-6.773993	3.940376	2.682085	-2.707467	2.284614	
-1.105544	102.722633	-1.412743	1.524444	2.109551	-7.268882	-1.034716	-7.099272	1.637388	-1.898828	6.715823	6.053681	1.767658	-2.753395	-0.145957	0.	0.	0.	-3.764035	-13.258679	-6.777174	0.953265	18.016106	7.640205	2.746305	-9.540697	-4.155180	0.	0.	0.	0.000001	-0.000001	-0.000005	0.920644	3.651211	-1.073378	-0.911723	-4.181597	1.171283	1.152382	3.766915	1.077980	-8.938343	-12.800486	-4.013323	14.091660	-3.994609	2.897099	-1.451379	-2.369502	0.032015	-5.405969	0.669870	3.878846	5.220926	-21.744864	6.002952	-3.658457	2.326460	2.388334	-2.186284	-6.658044	4.104436	2.213685	-3.617030	3.588859	
-0.872063	102.636505	-1.601467	1.682705	2.086107	-7.451596	-1.271898	-7.690273	2.040030	-1.873725	7.632354	6.118388	1.609771	-3.118313	-0.399731	0.	0.	0.	-4.898403	-13.481233	-6.721399	1.701736	20.280785	5.303957	2.286149	-10.259627	-2.537489	0.	0.	0.	0.000001	0.000000	-0.000004	1.043858	3.380740	-1.289068	-0.568096	-3.051636	0.493151	1.756130	3.714828	0.450262	-11.056418	-16.559723	-5.119278	13.632172	-3.269898	2.316647	-1.714330	-1.364418	-0.702627	-5.955506	1.104618	3.058334	6.238340	-24.808760	7.648208	-1.933796	0.584324	2.659414	-2.351047	-6.174653	3.858590	2.421412	-3.820677	4.078635	
